<mxfile host="Electron" agent="Mozilla/5.0 (X11; Linux x86_64) AppleWebKit/537.36 (KHTML, like Gecko) draw.io/26.1.1 Chrome/132.0.6834.210 Electron/34.5.0 Safari/537.36" version="26.1.1">
  <diagram name="部署图" id="deployment-diagram">
    <mxGraphModel dx="2854" dy="605" grid="1" gridSize="10" guides="1" tooltips="1" connect="1" arrows="1" fold="1" page="1" pageScale="1" pageWidth="850" pageHeight="1100" math="0" shadow="0">
      <root>
        <mxCell id="0" />
        <mxCell id="1" parent="0" />
        <mxCell id="client_device" value="&lt;&lt;device&gt;&gt;&#xa;客户端设备" style="verticalAlign=top;align=center;shape=cube;size=10;direction=south;fontStyle=0;html=1;boundedLbl=1;recursiveResize=0;" parent="1" vertex="1">
          <mxGeometry x="-270" y="380" width="160" height="120" as="geometry" />
        </mxCell>
        <mxCell id="client_app" value="&lt;&lt;component&gt;&gt;&#xa;移动应用" style="html=1;dropTarget=0;strokeWidth=1;" parent="client_device" vertex="1">
          <mxGeometry x="20" y="45" width="120" height="60" as="geometry" />
        </mxCell>
        <mxCell id="app_server" value="&lt;&lt;device&gt;&gt;&#xa;应用服务器" style="verticalAlign=top;align=center;shape=cube;size=10;direction=south;fontStyle=0;html=1;boundedLbl=1;recursiveResize=0;" parent="1" vertex="1">
          <mxGeometry x="-710" y="400" width="250" height="240" as="geometry" />
        </mxCell>
        <mxCell id="web_server" value="&lt;&lt;执行环境&gt;&gt;&#xa;Phoenix Web服务器" style="verticalAlign=top;align=center;shape=folder;fontStyle=0;tabWidth=50;tabHeight=20;html=1;strokeWidth=1;" parent="app_server" vertex="1">
          <mxGeometry x="30" y="45" width="190" height="175" as="geometry" />
        </mxCell>
        <mxCell id="api_module" value="&lt;&lt;component&gt;&gt;&#xa;API模块" style="html=1;dropTarget=0;strokeWidth=1;" parent="web_server" vertex="1">
          <mxGeometry x="35" y="40" width="120" height="40" as="geometry" />
        </mxCell>
        <mxCell id="service_module" value="&lt;&lt;component&gt;&gt;&#xa;服务模块" style="html=1;dropTarget=0;strokeWidth=1;" parent="web_server" vertex="1">
          <mxGeometry x="35" y="90" width="120" height="40" as="geometry" />
        </mxCell>
        <mxCell id="websocket_module" value="&lt;&lt;component&gt;&gt;&#xa;WebSocket模块" style="html=1;dropTarget=0;strokeWidth=1;" parent="web_server" vertex="1">
          <mxGeometry x="35" y="140" width="120" height="40" as="geometry" />
        </mxCell>
        <mxCell id="db_server" value="&lt;&lt;device&gt;&gt;&#xa;数据库服务器" style="verticalAlign=top;align=center;shape=cube;size=10;direction=south;fontStyle=0;html=1;boundedLbl=1;recursiveResize=0;" parent="1" vertex="1">
          <mxGeometry x="-1040" y="750" width="160" height="120" as="geometry" />
        </mxCell>
        <mxCell id="postgres" value="&lt;&lt;component&gt;&gt;&#xa;PostgreSQL" style="html=1;dropTarget=0;strokeWidth=1;" parent="db_server" vertex="1">
          <mxGeometry x="20" y="45" width="120" height="60" as="geometry" />
        </mxCell>
        <mxCell id="payment_system" value="&lt;&lt;device&gt;&gt;&#xa;外部支付系统" style="verticalAlign=top;align=center;shape=cube;size=10;direction=south;fontStyle=0;html=1;boundedLbl=1;recursiveResize=0;" parent="1" vertex="1">
          <mxGeometry x="-270" y="740" width="160" height="120" as="geometry" />
        </mxCell>
        <mxCell id="payment_api" value="&lt;&lt;component&gt;&gt;&#xa;支付API" style="html=1;dropTarget=0;strokeWidth=1;" parent="payment_system" vertex="1">
          <mxGeometry x="20" y="45" width="120" height="60" as="geometry" />
        </mxCell>
        <mxCell id="push_system" value="&lt;&lt;device&gt;&gt;&#xa;外部推送系统" style="verticalAlign=top;align=center;shape=cube;size=10;direction=south;fontStyle=0;html=1;boundedLbl=1;recursiveResize=0;" parent="1" vertex="1">
          <mxGeometry x="-480" y="750" width="160" height="120" as="geometry" />
        </mxCell>
        <mxCell id="push_api" value="&lt;&lt;component&gt;&gt;&#xa;推送API" style="html=1;dropTarget=0;strokeWidth=1;" parent="push_system" vertex="1">
          <mxGeometry x="20" y="45" width="120" height="60" as="geometry" />
        </mxCell>
        <mxCell id="oss_system" value="&lt;&lt;device&gt;&gt;&#xa;外部OSS存储" style="verticalAlign=top;align=center;shape=cube;size=10;direction=south;fontStyle=0;html=1;boundedLbl=1;recursiveResize=0;" parent="1" vertex="1">
          <mxGeometry x="-750" y="750" width="160" height="120" as="geometry" />
        </mxCell>
        <mxCell id="oss_api" value="&lt;&lt;component&gt;&gt;&#xa;存储API" style="html=1;dropTarget=0;strokeWidth=1;" parent="oss_system" vertex="1">
          <mxGeometry x="20" y="45" width="120" height="60" as="geometry" />
        </mxCell>
        <mxCell id="client_to_server" style="edgeStyle=orthogonalEdgeStyle;rounded=0;orthogonalLoop=1;jettySize=auto;html=1;exitX=0.5;exitY=1;exitDx=0;exitDy=0;endArrow=open;endSize=12;strokeWidth=1;dashed=1;" parent="1" source="client_device" edge="1">
          <mxGeometry relative="1" as="geometry">
            <Array as="points">
              <mxPoint x="-460" y="440" />
            </Array>
            <mxPoint x="-460" y="440" as="targetPoint" />
          </mxGeometry>
        </mxCell>
        <mxCell id="client_to_server_label" value="&lt;&lt;protocol&gt;&gt;&#xa;HTTPS" style="edgeLabel;html=1;align=center;verticalAlign=middle;resizable=0;points=[];" parent="client_to_server" vertex="1" connectable="0">
          <mxGeometry x="-0.2" relative="1" as="geometry">
            <mxPoint as="offset" />
          </mxGeometry>
        </mxCell>
        <mxCell id="server_to_db" style="edgeStyle=orthogonalEdgeStyle;rounded=0;orthogonalLoop=1;jettySize=auto;html=1;exitX=0.5;exitY=1;exitDx=0;exitDy=0;entryX=0.5;entryY=0;entryDx=0;entryDy=0;endArrow=open;endSize=12;strokeWidth=1;dashed=1;" parent="1" source="app_server" target="db_server" edge="1">
          <mxGeometry relative="1" as="geometry" />
        </mxCell>
        <mxCell id="server_to_db_label" value="&lt;&lt;protocol&gt;&gt;&#xa;TCP/IP" style="edgeLabel;html=1;align=center;verticalAlign=middle;resizable=0;points=[];" parent="server_to_db" vertex="1" connectable="0">
          <mxGeometry x="-0.2" relative="1" as="geometry">
            <mxPoint as="offset" />
          </mxGeometry>
        </mxCell>
        <mxCell id="server_to_payment" style="edgeStyle=orthogonalEdgeStyle;rounded=0;orthogonalLoop=1;jettySize=auto;html=1;exitX=1;exitY=0.25;exitDx=0;exitDy=0;entryX=0;entryY=0.5;entryDx=0;entryDy=0;endArrow=open;endSize=12;strokeWidth=1;dashed=1;" parent="1" source="app_server" target="payment_system" edge="1">
          <mxGeometry relative="1" as="geometry">
            <Array as="points">
              <mxPoint x="-522" y="685" />
              <mxPoint x="-190" y="685" />
            </Array>
          </mxGeometry>
        </mxCell>
        <mxCell id="server_to_payment_label" value="&lt;&lt;protocol&gt;&gt;&#xa;HTTPS" style="edgeLabel;html=1;align=center;verticalAlign=middle;resizable=0;points=[];" parent="server_to_payment" vertex="1" connectable="0">
          <mxGeometry x="-0.2" relative="1" as="geometry">
            <mxPoint x="54" as="offset" />
          </mxGeometry>
        </mxCell>
        <mxCell id="server_to_push" style="edgeStyle=orthogonalEdgeStyle;rounded=0;orthogonalLoop=1;jettySize=auto;html=1;exitX=0;exitY=0;exitDx=240;exitDy=130;entryX=0;entryY=0.5;entryDx=0;entryDy=0;endArrow=open;endSize=12;strokeWidth=1;dashed=1;exitPerimeter=0;" parent="1" edge="1">
          <mxGeometry relative="1" as="geometry">
            <mxPoint x="-630" y="640" as="sourcePoint" />
            <mxPoint x="-407.75" y="748.08" as="targetPoint" />
            <Array as="points">
              <mxPoint x="-630" y="698" />
              <mxPoint x="-408" y="698" />
            </Array>
          </mxGeometry>
        </mxCell>
        <mxCell id="server_to_push_label" value="&lt;&lt;protocol&gt;&gt;&#xa;HTTPS" style="edgeLabel;html=1;align=center;verticalAlign=middle;resizable=0;points=[];" parent="server_to_push" vertex="1" connectable="0">
          <mxGeometry x="-0.2" relative="1" as="geometry">
            <mxPoint as="offset" />
          </mxGeometry>
        </mxCell>
        <mxCell id="server_to_oss" style="edgeStyle=orthogonalEdgeStyle;rounded=0;orthogonalLoop=1;jettySize=auto;html=1;exitX=1;exitY=0.75;exitDx=0;exitDy=0;endArrow=open;endSize=12;strokeWidth=1;dashed=1;" parent="1" edge="1">
          <mxGeometry relative="1" as="geometry">
            <mxPoint x="-680" y="640" as="sourcePoint" />
            <mxPoint x="-680" y="750" as="targetPoint" />
            <Array as="points">
              <mxPoint x="-680" y="750" />
            </Array>
          </mxGeometry>
        </mxCell>
        <mxCell id="server_to_oss_label" value="&lt;&lt;protocol&gt;&gt;&#xa;HTTPS" style="edgeLabel;html=1;align=center;verticalAlign=middle;resizable=0;points=[];" parent="server_to_oss" vertex="1" connectable="0">
          <mxGeometry x="-0.2" relative="1" as="geometry">
            <mxPoint as="offset" />
          </mxGeometry>
        </mxCell>
        <mxCell id="client_to_payment" style="edgeStyle=orthogonalEdgeStyle;rounded=0;orthogonalLoop=1;jettySize=auto;html=1;exitX=1;exitY=0.5;exitDx=0;exitDy=0;entryX=0;entryY=0.5;entryDx=0;entryDy=0;endArrow=open;endSize=12;strokeWidth=1;dashed=1;" parent="1" source="client_device" target="payment_system" edge="1">
          <mxGeometry relative="1" as="geometry">
            <Array as="points">
              <mxPoint x="-190" y="590" />
              <mxPoint x="-190" y="590" />
            </Array>
          </mxGeometry>
        </mxCell>
        <mxCell id="client_to_payment_label" value="&lt;&lt;protocol&gt;&gt;&#xa;HTTPS" style="edgeLabel;html=1;align=center;verticalAlign=middle;resizable=0;points=[];" parent="client_to_payment" vertex="1" connectable="0">
          <mxGeometry x="-0.2" relative="1" as="geometry">
            <mxPoint as="offset" />
          </mxGeometry>
        </mxCell>
        <mxCell id="SCj4PzrIkBUkaeM6iY5j-1" value="" style="endArrow=none;dashed=1;html=1;dashPattern=1 3;strokeWidth=2;rounded=0;entryX=1;entryY=1;entryDx=0;entryDy=0;entryPerimeter=0;exitX=0;exitY=0;exitDx=0;exitDy=0;exitPerimeter=0;startArrow=openThin;startFill=0;" parent="1" source="push_system" target="client_device" edge="1">
          <mxGeometry width="50" height="50" relative="1" as="geometry">
            <mxPoint x="-350" y="650" as="sourcePoint" />
            <mxPoint x="-300" y="600" as="targetPoint" />
            <Array as="points">
              <mxPoint x="-320" y="500" />
            </Array>
          </mxGeometry>
        </mxCell>
      </root>
    </mxGraphModel>
  </diagram>
</mxfile>
